<svg width="16" height="18" viewBox="0 0 16 18" fill="none" xmlns="http://www.w3.org/2000/svg">
<path d="M13.3333 5.80085C13.3333 4.52759 12.7714 3.30647 11.7712 2.40614C10.771 1.5058 9.41449 1 8 1C6.58551 1 5.22896 1.5058 4.22876 2.40614C3.22857 3.30647 2.66667 4.52759 2.66667 5.80085C2.66667 11.4018 1 13.0021 1 13.0021H15C15 13.0021 13.3333 11.4018 13.3333 5.80085Z" stroke="#213856" stroke-width="1.5" stroke-linecap="round" stroke-linejoin="round"/>
<path d="M9.53784 16.2026C9.38156 16.4451 9.15725 16.6464 8.88737 16.7864C8.61749 16.9263 8.31151 16.9999 8.00006 16.9999C7.68861 16.9999 7.38263 16.9263 7.11275 16.7864C6.84286 16.6464 6.61856 16.4451 6.46228 16.2026" stroke="#213856" stroke-width="1.5" stroke-linecap="round" stroke-linejoin="round"/>
</svg>
